<?xml version="1.0" encoding="UTF-8"?>
<svg width="16" height="32" version="1.1" viewBox="0 0 16 32" xmlns="http://www.w3.org/2000/svg" xmlns:cc="http://creativecommons.org/ns#" xmlns:dc="http://purl.org/dc/elements/1.1/" xmlns:rdf="http://www.w3.org/1999/02/22-rdf-syntax-ns#">
 <metadata>
  <rdf:RDF>
   <cc:Work rdf:about="">
    <dc:format>image/svg+xml</dc:format>
    <dc:type rdf:resource="http://purl.org/dc/dcmitype/StillImage"/>
    <dc:title/>
   </cc:Work>
  </rdf:RDF>
 </metadata>
 <path d="m0 16v-16h8 8v16 16h-6v-6.5c0-5.8333-0.20513-6.5-2-6.5-1.7949 0-2 0.66667-2 6.5v6.5h-6zm5 8.5v-6.5h6v6.5c0 5.8333 0.20513 6.5 2 6.5 1.9111 0 2-0.66667 2-15v-15h-7-7v15c0 14.333 0.08889 15 2 15 1.7949 0 2-0.66667 2-6.5zm0-15c0-4.3333 0.11111-4.5 3-4.5s3 0.16667 3 4.5c0 4.3333-0.11111 4.5-3 4.5s-3-0.16667-3-4.5zm5 0c0-2.8333-0.38095-3.5-2-3.5-1.619 0-2 0.66667-2 3.5 0 2.8333 0.38095 3.5 2 3.5 1.619 0 2-0.66667 2-3.5z"/>
</svg>
