<?xml version="1.0" encoding="UTF-8"?>
<svg width="16" height="32" version="1.1" viewBox="0 0 16 32" xmlns="http://www.w3.org/2000/svg" xmlns:cc="http://creativecommons.org/ns#" xmlns:dc="http://purl.org/dc/elements/1.1/" xmlns:rdf="http://www.w3.org/1999/02/22-rdf-syntax-ns#">
 <metadata>
  <rdf:RDF>
   <cc:Work rdf:about="">
    <dc:format>image/svg+xml</dc:format>
    <dc:type rdf:resource="http://purl.org/dc/dcmitype/StillImage"/>
    <dc:title/>
   </cc:Work>
  </rdf:RDF>
 </metadata>
 <path d="m0 16v-16h3c2.853 0 3.003 0.20823 3.062 4.25l0.06203 4.25 2.135-4.25c1.7489-3.4814 2.6419-4.25 4.938-4.25 3.7286 0 3.6797 2.3203-0.21141 10.029l-3.0144 5.9715 3.0144 5.9715c3.8911 7.7082 3.94 10.029 0.21141 10.029-2.2961 0-3.1891-0.76861-4.938-4.25l-2.135-4.25-0.06203 4.25c-0.05899 4.0418-0.20902 4.25-3.062 4.25h-3zm5.2001 9.25 0.2999-5.75 2.9583 5.75c1.9343 3.7597 3.5785 5.75 4.75 5.75 2.4479 0 2.2873-0.95714-1.423-8.4811l-3.2146-6.5189 3.2146-6.5189c3.7102-7.5239 3.8708-8.4811 1.423-8.4811-1.1715 0-2.8157 1.9903-4.75 5.75l-2.9583 5.75-0.2999-5.75c-0.25723-4.9318-0.57741-5.75-2.25-5.75-1.8468 0-1.9501 0.79462-1.9501 15s0.10331 15 1.9501 15c1.6726 0 1.9928-0.81824 2.25-5.75z"/>
</svg>
